<?xml version="1.0" encoding="utf-8"?>
<!-- Generator: Adobe Illustrator 21.1.0, SVG Export Plug-In . SVG Version: 6.00 Build 0)  -->
<svg version="1.1" id="Layer_1" xmlns="http://www.w3.org/2000/svg" xmlns:xlink="http://www.w3.org/1999/xlink" x="0px" y="0px"
	 viewBox="0 0 195 47.3" style="enable-background:new 0 0 195 47.3;" xml:space="preserve">
<style type="text/css">
	.st0{fill:#EA2127;}
	.st1{fill:#4E4949;}
	.st2{fill:#807876;}
</style>
<g>
	<polygon class="st0" points="20.7,9.1 24.3,0 0,0 3.9,9.1 	"/>
	<path class="st1" d="M34.3,0h9.1L26.1,40.4h-8.8L34.3,0z"/>
	<path class="st2" d="M26.1,40.4h-8.8L0,0h9.1L26.1,40.4z"/>
	<path class="st1" d="M33.3,31c0-5.4,4.4-9.6,9.5-9.6c5.1,0,9.5,4,9.5,9.5c0,5.9-4.5,9.6-9.5,9.6C37.5,40.5,33.3,36.2,33.3,31z
		 M48,31.1c0-3.3-2.5-5.7-5.2-5.7c-2.2,0-5.2,1.9-5.2,5.6c0,3.4,2.5,5.6,5.2,5.6C46,36.6,48,33.9,48,31.1z"/>
	<path class="st1" d="M58.3,38.3l-6.5-16.2h4.9l4.1,11.5l4.3-11.5H70L59.4,46.7h-4.6L58.3,38.3z"/>
	<path class="st1" d="M88.2,40h-3.9v-2.2c-1.4,1.6-4,2.8-6.2,2.8c-4.6,0-8.7-3.7-8.7-9.6c0-5.5,4-9.4,9-9.4c3.6,0,5.8,2.6,5.9,2.9
		h0.1v-2.3h3.9V40H88.2z M78.9,25.4c-3.5,0-5.3,3-5.3,5.7c0,3,2.3,5.5,5.3,5.5s5.2-2.3,5.2-5.6C84.1,27.3,81.5,25.4,78.9,25.4z"/>
	<path class="st1" d="M109,22.1v14.6c0,8.6-6.4,10.6-9.8,10.6c-3.7,0-7.4-1.9-9-5.9h4.9c1.7,2,3.7,2,4.4,2c2.4,0,5.2-1.7,5.5-5.6
		l-0.1-0.1c-0.6,0.8-2.2,2.9-5.9,2.9c-4.3,0-9.1-3.7-9.1-9.7c0-5.6,4.6-9.4,9.1-9.4c3.7,0,5.2,2.1,5.7,2.8h0.1v-2.2
		C104.8,22.1,109,22.1,109,22.1z M99.5,25.4c-2.6,0-5.2,2.1-5.2,5.5c0,3.6,2.7,5.7,5.3,5.7s5.1-2.2,5.1-5.8
		C104.8,28.3,102.7,25.4,99.5,25.4z"/>
	<path class="st0" d="M143.9,15.7c6.8,0,12.5,5.4,12.5,12.5c0,6.8-5.6,12.3-12.5,12.3s-12.5-5.5-12.5-12.3
		C131.4,21.1,137.1,15.7,143.9,15.7z M143.9,36.4c4.5,0,8-3.8,8-8.2c0-4.6-3.6-8.3-8-8.3s-8,3.7-8,8.3
		C135.8,32.5,139.3,36.4,143.9,36.4z"/>
	<path class="st0" d="M158.4,22.5h4V24c0.7-0.7,2.2-2.2,4.9-2.2c1.5,0,3.9,0.7,5.4,2.5c1.6,2,1.6,5,1.6,6.3v9.7H170v-8.8
		c0-1.5,0-5.7-3.6-5.7c-0.8,0-2.2,0.4-2.9,1.6c-0.8,1.1-0.8,3-0.8,4.5v8.5h-4.3L158.4,22.5L158.4,22.5z"/>
	<path class="st1" d="M129.5,30.8c0-4.5-3.4-9.3-9.2-9.3c-5.7,0-9.4,4.5-9.4,9.6c0,5.2,4,9.5,9.4,9.5c4.2,0,7.6-3,8.6-6.2h-4.5
		c-0.8,1.5-2.2,2.3-4.1,2.3c-0.7,0-1.3-0.1-1.9-0.4l0,0c0,0,0,0-0.1,0h-0.1c-1.2-0.5-2.1-1.3-2.6-2.5c0,0,0,0,0-0.1
		s-0.1-0.2-0.1-0.2l0,0c-0.3-0.7-0.5-1.5-0.5-2.4c0-2.2,0.9-4.1,2.7-5c0,0,0.1,0,0.1-0.1c0,0,0.1,0,0.1-0.1c0.8-0.4,1.6-0.5,2.3-0.5
		c2.3,0,4.3,1.2,4.8,4.1h-4.1l-1.5,3.4h9.8C129.4,32.4,129.5,31.6,129.5,30.8z"/>
	<path class="st0" d="M195,30.8c0-4.5-3.4-9.3-9.2-9.3c-5.7,0-9.4,4.5-9.4,9.6c0,5.2,4,9.5,9.4,9.5c4.2,0,7.6-3,8.6-6.2h-4.5
		c-0.8,1.5-2.2,2.3-4.1,2.3c-0.7,0-1.3-0.1-1.9-0.4l0,0c0,0,0,0-0.1,0h-0.1c-1.2-0.5-2.1-1.3-2.6-2.5c0,0,0,0,0-0.1
		s-0.1-0.2-0.1-0.2l0,0c-0.3-0.7-0.5-1.5-0.5-2.4c0-2.2,0.9-4.1,2.7-5c0,0,0.1,0,0.1-0.1c0,0,0.1,0,0.1-0.1c0.8-0.4,1.6-0.5,2.3-0.5
		c2.3,0,4.3,1.2,4.8,4.1h-4l-1.5,3.4h9.6C194.9,32.4,195,31.6,195,30.8z"/>
</g>
</svg>
